:SAMPLES-PER-SECOND 30
:FULLY-SPECIFIED
:DEGREES
57
root  24.93066713 39.70955676 30.30400013 -7.063029766 1.291200042 2.512729883
lowerback  10.17720032 2.026799917 -2.975039959
upperback  1.97408998 2.410020113 0.8462569714
thorax  -3.804369926 1.232759953 2.231790066
lowerneck  -16.56430054 -6.228909969 -16.15629959
upperneck  27.39229965 -6.663809776 8.509790421
head  12.75800037 -3.585109949 4.946549892
lclavicle  0 -5.34481991e-014 2.981770104e-014
lhumerus  -44.83110046 16.9571991 76.96160126
lradius  -3.119278524e-031 -1.65497599e-031 27.94879913
lwrist  -3.531125038e-031 -0 -2.93069005
lhand  -7.224333119e-031 -12.15970039 31.91869926
lfingers  90 7.125020027 -90
lthumb  94.05394056 15.93941376 75.5291091
rclavicle  0 -5.34481991e-014 2.981770104e-014
rhumerus  -30.79610062 -5.017449856 -81.52610016
rradius  2.974495956e-031 1.902949774e-031 32.60929871
rwrist  7.062250077e-031 -3.531125038e-031 3.938189983
rhand  3.687973823e-031 -16.77009964 11.15779972
rfingers  -90 -7.125020027 -90
rthumb  -85.33904014 -26.00424421 -79.4659685
rfemur  -9.546930313 -4.144410133 15.77000046
rtibia  -0 0 71.13569641
rfoot  -0 11.82489967 -8.81126976
rtoes  4.983075843 19.3939444 -104.7123232
lfemur  -5.454850197 4.810679913 -25.07189941
ltibia  -0 0 25.31110001
lfoot  4.461861114e-032 -8.407859802 -5.93723011
ltoes  -10.54993523 -17.08877618 -122.3660467
58
root  24.95399986 39.69466743 30.64666808 -7.151440144 1.595180035 2.825370073
lowerback  10.17020035 1.872589946 -3.39083004
upperback  1.961279988 2.16053009 0.8348320127
thorax  -3.812659979 1.114150047 2.48842001
lowerneck  -16.23089981 -6.114329815 -16.15950012
upperneck  27.24640083 -6.551760197 8.517430305
head  12.61229992 -3.538749933 4.968389988
lclavicle  0 -5.34481991e-014 2.981770104e-014
lhumerus  -44.49330139 16.89189911 77.12319946
lradius  -3.108736645e-031 -1.674694154e-031 28.31159973
lwrist  -3.531125038e-031 -3.531125038e-031 -2.816580057
lhand  -7.228322611e-031 -12.30560017 31.93110085
lfingers  90 7.125020027 -90
lthumb  94.01953297 15.97061981 75.67341575
rclavicle  0 -5.34481991e-014 2.981770104e-014
rhumerus  -31.16349983 -5.021259785 -81.44680023
rradius  2.980948512e-031 1.892825931e-031 32.41450119
rwrist  1.059337512e-030 -3.531125038e-031 4.133399963
rhand  3.685040789e-031 -16.61809921 10.90709972
rfingers  -90 -7.125020027 -90
rthumb  -85.31807608 -25.75247397 -79.32537515
rfemur  -10.7258997 -4.632019997 15.28750038
rtibia  -0 0 72.001297
rfoot  -0 11.12450027 -8.92512989
rtoes  4.472529698 19.51348874 -103.1794422
lfemur  -4.714869976 4.881110191 -25.43479919
ltibia  -0 0 25.13629913
lfoot  4.467690536e-032 -8.899390221 -6.087910175
ltoes  -9.849583171 -17.49357128 -120.0100835
59
root  24.97466681 39.67933354 30.97555506 -7.1738801 2.045079947 3.074609995
lowerback  10.36159992 1.683969975 -3.71123004
upperback  1.735350013 1.865370035 0.8332020044
thorax  -4.143970013 0.9807369709 2.700789928
lowerneck  -15.66240025 -5.947380066 -16.16250038
upperneck  27.26119995 -6.38383007 8.429269791
head  12.47189999 -3.488140106 4.969120026
lclavicle  0 -5.34481991e-014 2.981770104e-014
lhumerus  -44.5021019 16.51239967 77.36910248
lradius  -3.089890257e-031 -1.709216848e-031 28.94980049
lwrist  -7.062250077e-031 -3.531125038e-031 -2.409719944
lhand  -7.227813898e-031 -12.28709984 31.67099953
lfingers  90 7.125020027 -90
lthumb  93.95736073 15.71620874 75.67330669
rclavicle  0 -5.34481991e-014 2.981770104e-014
rhumerus  -31.81710052 -5.153649807 -81.17910004
rradius  2.997108448e-031 1.867132826e-031 31.92200089
rwrist  1.765562519e-030 -3.531125038e-031 4.65678978
rhand  -0 -16.78129959 10.97710037
rfingers  -90 -7.125020027 -90
rthumb  -85.38108208 -25.82696844 -79.49407912
rfemur  -11.97029972 -5.242070198 14.87919998
rtibia  -0 0 72.68900299
rfoot  -0 9.458720207 -8.854579926
rtoes  4.082470568 19.59562708 -102.0140939
lfemur  -4.102250099 4.8884902 -25.72859955
ltibia  -0 0 25.07029915
lfoot  4.474443324e-032 -9.435600281 -6.375699997
ltoes  -9.342060797 -17.76359021 -118.3343499
60
root  24.98955614 39.66511103 31.31088798 -7.24695015 2.214659929 2.960659981
lowerback  10.45269966 1.578649998 -3.641560078
upperback  1.69509995 1.734230042 0.9411460161
thorax  -4.228010178 0.9176369905 2.790740013
lowerneck  -15.76029968 -5.913239956 -16.05220032
upperneck  27.50119972 -6.263609886 8.113570213
head  12.55659962 -3.465770006 4.851290226
lclavicle  0 -5.34481991e-014 2.981770104e-014
lhumerus  -44.22370148 16.0156002 77.78990173
lradius  -3.070185735e-031 -1.744363377e-031 29.60359955
lwrist  -7.062250077e-031 -3.531125038e-031 -1.887009978
lhand  -7.220258074e-031 -12.00870037 31.32080078
lfingers  90 7.125020027 -90
lthumb  93.93628013 15.34079964 75.42095948
rclavicle  0 -5.34481991e-014 2.981770104e-014
rhumerus  -32.17549896 -5.553490162 -80.79550171
rradius  3.009496668e-031 1.847098764e-031 31.53980064
rwrist  7.062250077e-031 -0 5.115159988
rhand  -0 -17.27569962 11.56719971
rfingers  -90 -7.125020027 -90
rthumb  -85.50136357 -26.42488351 -79.97403047
rfemur  -13.18799973 -5.544320107 15.02869987
rtibia  -0 0 73.15950012
rfoot  -0 7.587299824 -8.762080193
rtoes  3.749118584 19.65960998 -101.0217184
lfemur  -3.432679892 4.831620216 -25.58399963
ltibia  -0 0 25.05649948
lfoot  4.48052692e-032 -9.892749786 -6.407760143
ltoes  -8.85432808 -18.00563548 -116.7462624
61
root  25.00488852 39.64888805 31.62333271 -7.231679916 2.300559998 2.826169968
lowerback  10.33230019 1.502320051 -3.536109924
upperback  1.814659953 1.654489994 1.032050014
thorax  -4.02986002 0.8720700145 2.84126997
lowerneck  -15.85359955 -5.88436985 -15.92269993
upperneck  27.36370087 -6.196119785 7.979290009
head  12.50010014 -3.432780027 4.781529903
lclavicle  0 -5.34481991e-014 2.981770104e-014
lhumerus  -43.52119827 15.62320042 78.26110077
lradius  -3.053145042e-031 -1.774020684e-031 30.15859985
lwrist  -1.059337512e-030 -0 -1.444120049
lhand  -7.210540013e-031 -11.64009953 31.41010094
lfingers  90 7.125020027 -90
lthumb  94.0505789 15.37824729 75.04909946
rclavicle  0 -5.34481991e-014 2.981770104e-014
rhumerus  -32.35879898 -5.821909904 -80.63310242
rradius  3.011899075e-031 1.843178776e-031 31.46520042
rwrist  7.062250077e-031 -0 4.804470062
rhand  -0 -17.58950043 12.00730038
rfingers  -90 -7.125020027 -90
rthumb  -85.57083153 -26.8694173 -80.27497024
rfemur  -14.55060005 -5.724009991 15.26280022
rtibia  -0 0 73.45809937
rfoot  -0 5.988440037 -8.713859558
rtoes  3.051194732 19.77531096 -98.95327367
lfemur  -2.905529976 4.709579945 -25.43849945
ltibia  -0 0 25.04360008
lfoot  4.484944846e-032 -10.2112999 -6.291049957
ltoes  -8.417555928 -18.20850629 -115.340984
62
root  25.03088853 39.63488782 31.93644426 -7.175829887 2.59961009 3.031209946
lowerback  10.19489956 1.372869968 -3.743760109
upperback  1.863330007 1.463979959 0.9914309978
thorax  -3.89199996 0.7769269943 2.945509911
lowerneck  -15.56770039 -5.816989899 -15.89039993
upperneck  27.09020042 -6.182740211 8.09720993
head  12.33049965 -3.407880068 4.819809914
lclavicle  0 -5.34481991e-014 2.981770104e-014
lhumerus  -43.0381012 15.06410027 78.68219757
lradius  -3.031051113e-031 -1.8115113e-031 30.86470032
lwrist  -7.062250077e-031 -0 -0.8674060106
lhand  -7.215667063e-031 -11.83609962 31.83480072
lfingers  90 7.125020027 -90
lthumb  94.11472738 15.81511909 75.21323987
rclavicle  0 -5.34481991e-014 2.981770104e-014
rhumerus  -32.63830185 -6.053030014 -80.4803009
rradius  3.020985418e-031 1.828248107e-031 31.18160057
rwrist  3.531125038e-031 -7.062250077e-031 4.878039837
rhand  -0 -17.65850067 12.03429985
rfingers  -90 -7.125020027 -90
rthumb  -85.59990602 -26.89849602 -80.34733458
rfemur  -15.88259983 -6.125730038 15.0024004
rtibia  -0 0 73.55970001
rfoot  -0 4.559539795 -8.536370277
rtoes  2.26189685 19.87689 -96.62638825
lfemur  -2.445820093 4.575870037 -25.7133007
ltibia  -0 0 25.08160019
lfoot  8.984541472e-032 -10.71759987 -6.347239971
ltoes  -7.801805793 -18.47317773 -113.384343
63
root  25.07044424 39.60533442 32.27955676 -7.252940178 2.984430075 3.546309948
lowerback  10.13119984 1.220149994 -4.221290112
upperback  1.929479957 1.207839966 0.8551769853
thorax  -3.773439884 0.6515060067 3.109410048
lowerneck  -15.48729992 -5.813529968 -15.84599972
upperneck  27.04730034 -6.215129852 8.132909775
head  12.30029964 -3.414360046 4.820670128
lclavicle  0 -5.34481991e-014 2.981770104e-014
lhumerus  -42.76610184 14.38720036 79.0318985
lradius  -3.006429949e-031 -1.852086121e-031 31.63479996
lwrist  -7.062250077e-031 -3.531125038e-031 -0.2072020024
lhand  -7.199624642e-031 -11.2105999 31.98880005
lfingers  90 7.125020027 -90
lthumb  94.31526833 15.87760879 74.58034857
rclavicle  0 -5.34481991e-014 2.981770104e-014
rhumerus  -32.74919891 -6.633619785 -80.12290192
rradius  3.038989238e-031 1.79816252e-031 30.61269951
rwrist  7.062250077e-031 -3.531125038e-031 6.005980015
rhand  -0 -17.76530075 12.12549973
rfingers  -90 -7.125020027 -90
rthumb  -85.63586702 -26.99215251 -80.45523294
rfemur  -16.85829926 -6.651460171 14.27649975
rtibia  -0 0 73.44309998
rfoot  -0 3.022809982 -8.22865963
rtoes  2.060426499 19.89790736 -96.03413397
lfemur  -1.75711 4.526830196 -26.35009956
ltibia  -0 0 25.11510086
lfoot  4.502752744e-032 -11.40079975 -6.425570011
ltoes  -7.232492664 -18.69660317 -111.5981682
64
root  25.08999982 39.57199938 32.60733236 -7.257319927 3.296250105 3.702909946
lowerback  10.15639973 1.094830036 -4.357079983
upperback  1.908869982 1.02331996 0.8037719727
thorax  -3.794300079 0.5621770024 3.157040119
lowerneck  -15.49549961 -5.812300205 -15.69419956
upperneck  27.0965004 -6.240499973 8.070540428
head  12.31620026 -3.418900013 4.767739773
lclavicle  0 -5.34481991e-014 2.981770104e-014
lhumerus  -42.46350098 13.71389961 79.32520294
lradius  -2.985528479e-031 -1.885593736e-031 32.27560043
lwrist  -7.062250077e-031 -0 0.4040650129
lhand  -7.198312952e-031 -11.15779972 32.63359833
lfingers  90 7.125020027 -90
lthumb  94.50803916 16.49147084 74.47787812
rclavicle  0 -5.34481991e-014 2.981770104e-014
rhumerus  -33.0245018 -7.238319874 -79.81749725
rradius  3.047566047e-031 1.78358774e-031 30.3383007
rwrist  1.059337512e-030 -3.531125038e-031 6.699009895
rhand  3.710965616e-031 -17.91049957 12.25790024
rfingers  -90 -7.125020027 -90
rthumb  -85.68385428 -27.1277325 -80.60153137
rfemur  -17.89100075 -7.017779827 14.13080025
rtibia  -0 0 73.12229919
rfoot  -0 1.55866003 -8.12928009
rtoes  2.124731294 19.89141474 -96.22310332
lfemur  -1.184520006 4.457409859 -26.53339958
ltibia  -0 0 25.12409973
lfoot  4.512004037e-032 -11.96940041 -6.482299805
ltoes  -6.448321142 -18.97238474 -109.1694888
